<svg xmlns="http://www.w3.org/2000/svg" width="900" height="540" viewBox="0 0 900 540" role="img" aria-labelledby="title desc">
  <title id="title">Search and recommendation preview</title>
  <desc id="desc">A clean ranking dashboard preview for search and recommendation systems.</desc>
  <defs>
    <linearGradient id="bg" x1="0" y1="0" x2="1" y2="1">
      <stop offset="0" stop-color="#edf9fb"/>
      <stop offset="1" stop-color="#e8efff"/>
    </linearGradient>
    <linearGradient id="bar" x1="0" y1="0" x2="0" y2="1">
      <stop offset="0" stop-color="#59c2ff"/>
      <stop offset="1" stop-color="#256fd8"/>
    </linearGradient>
  </defs>
  <rect width="900" height="540" fill="url(#bg)"/>
  <rect x="82" y="64" width="736" height="412" rx="30" fill="#fff" stroke="#dce6f1"/>
  <text x="124" y="122" font-family="Inter, Arial, sans-serif" font-size="26" font-weight="850" fill="#172033">Search &amp; Recommendation</text>
  <text x="124" y="156" font-family="Inter, Arial, sans-serif" font-size="18" fill="#6b788a">candidate generation / scoring / freshness</text>
  <g transform="translate(126 220)">
    <rect width="278" height="46" rx="16" fill="#f3f7fb"/>
    <rect y="70" width="326" height="46" rx="16" fill="#f3f7fb"/>
    <rect y="140" width="236" height="46" rx="16" fill="#f3f7fb"/>
    <circle cx="24" cy="23" r="10" fill="#256fd8"/>
    <circle cx="24" cy="93" r="10" fill="#59c2ff"/>
    <circle cx="24" cy="163" r="10" fill="#7fc9b7"/>
    <rect x="52" y="16" width="176" height="14" rx="7" fill="#91a2b8"/>
    <rect x="52" y="86" width="226" height="14" rx="7" fill="#91a2b8"/>
    <rect x="52" y="156" width="144" height="14" rx="7" fill="#91a2b8"/>
  </g>
  <g transform="translate(520 206)">
    <rect x="0" y="134" width="44" height="78" rx="14" fill="url(#bar)" opacity="0.55"/>
    <rect x="68" y="86" width="44" height="126" rx="14" fill="url(#bar)" opacity="0.7"/>
    <rect x="136" y="40" width="44" height="172" rx="14" fill="url(#bar)"/>
    <rect x="204" y="112" width="44" height="100" rx="14" fill="url(#bar)" opacity="0.62"/>
    <path d="M0 238H270" stroke="#dce6f1" stroke-width="3"/>
    <path d="M22 146C72 98 112 72 158 56C194 43 226 60 248 76" fill="none" stroke="#256fd8" stroke-width="5" stroke-linecap="round"/>
  </g>
</svg>
