<svg xmlns="http://www.w3.org/2000/svg" width="1200" height="420" viewBox="0 0 1200 420" role="img" aria-labelledby="title desc">
  <title id="title">sunrisefromdark portfolio banner</title>
  <desc id="desc">A clean light portfolio banner for AI Agent, Agent Harness, and Search Recommendation.</desc>
  <defs>
    <linearGradient id="text" x1="0" y1="0" x2="1" y2="0">
      <stop offset="0" stop-color="#111827"/>
      <stop offset="0.68" stop-color="#256fd8"/>
      <stop offset="1" stop-color="#4d8df5"/>
    </linearGradient>
    <radialGradient id="glow" cx="50%" cy="45%" r="55%">
      <stop offset="0" stop-color="#8ec5ff" stop-opacity="0.55"/>
      <stop offset="1" stop-color="#8ec5ff" stop-opacity="0"/>
    </radialGradient>
    <filter id="shadow" x="-20%" y="-20%" width="140%" height="140%">
      <feDropShadow dx="0" dy="16" stdDeviation="18" flood-color="#256fd8" flood-opacity="0.22"/>
    </filter>
  </defs>
  <rect width="1200" height="420" rx="30" fill="#f7f9fc"/>
  <circle cx="600" cy="124" r="120" fill="url(#glow)"/>
  <g filter="url(#shadow)">
    <circle cx="600" cy="124" r="58" fill="#ffffff"/>
    <circle cx="600" cy="124" r="49" fill="#dbeafe"/>
    <path d="M565 142C585 95 634 87 650 132C633 151 599 166 565 142Z" fill="#256fd8" opacity="0.22"/>
    <circle cx="600" cy="124" r="30" fill="#256fd8" opacity="0.18"/>
  </g>
  <text x="600" y="238" text-anchor="middle" font-family="Inter, Segoe UI, Arial, sans-serif" font-size="56" font-weight="900" fill="url(#text)">你好，我是 sunrisefromdark</text>
  <text x="600" y="290" text-anchor="middle" font-family="Inter, Segoe UI, Arial, sans-serif" font-size="24" font-weight="500" fill="#66758a">AI Agent / Agent Harness / Search &amp; Recommendation</text>
  <g font-family="Inter, Segoe UI, Arial, sans-serif" font-size="17" font-weight="700">
    <rect x="294" y="332" width="136" height="34" rx="8" fill="#eef5ff" stroke="#dbe8f8"/>
    <text x="362" y="355" text-anchor="middle" fill="#256fd8">AI Agent</text>
    <rect x="454" y="332" width="168" height="34" rx="8" fill="#eef5ff" stroke="#dbe8f8"/>
    <text x="538" y="355" text-anchor="middle" fill="#256fd8">Agent Harness</text>
    <rect x="646" y="332" width="154" height="34" rx="8" fill="#eef5ff" stroke="#dbe8f8"/>
    <text x="723" y="355" text-anchor="middle" fill="#256fd8">Search / Rec</text>
    <rect x="824" y="332" width="110" height="34" rx="8" fill="#eef5ff" stroke="#dbe8f8"/>
    <text x="879" y="355" text-anchor="middle" fill="#256fd8">Ranking</text>
  </g>
</svg>
